<svg>
    <defs>
        <symbol id="go-back" xmlns="http://www.w3.org/2000/svg" width="24" height="20"  viewBox="0 0 18 18" fill="currentColor">
            <svg xmlns="http://www.w3.org/2000/svg" height="18" viewBox="0 0 18 18" width="18"><path d="M0 0h24v24H0z" fill="none"/><path d="M21 11H6.83l3.58-3.59L9 6l-6 6 6 6 1.41-1.41L6.83 13H21z"/></svg>
        </symbol>

        <symbol id="home" xmlns="http://www.w3.org/2000/svg" width="24" height="24"  viewBox="0 0 18 18" fill="currentColor">
            <svg width="18" height="18" viewBox="0 0 18 18" xmlns="http://www.w3.org/2000/svg">
              <path opacity="0.5" d="M1.63704 7.20412L7.79649 2.11646C7.9186 2.0215 8.09497 2.0215 8.21707 2.11646L14.3765 7.20412C14.7971 7.55686 15.4212 7.48903 15.7604 7.08202C15.7604 7.06845 15.7739 7.06845 15.7739 7.05488C16.1267 6.62074 16.0588 5.98308 15.6247 5.61677L9.46524 0.529116C8.61052 -0.176372 7.37591 -0.176372 6.53476 0.529116L0.375299 5.61677C-0.0588474 5.98308 -0.126683 6.60717 0.226061 7.05488C0.565239 7.48903 1.18932 7.55687 1.6099 7.21769C1.62347 7.21769 1.62347 7.21769 1.63704 7.20412Z" />
              <path d="M15.0004 10.2025C14.9868 9.79549 14.8104 9.40204 14.4984 9.11713L8.1897 3.93451C8.08116 3.83954 7.91836 3.83954 7.80982 3.93451L1.50113 9.1307C1.18908 9.40204 1.01271 9.79549 0.999146 10.2025V14.9645C0.999146 15.5479 0.999146 16.3213 0.999146 16.3213L6.62949 16.3348L6.67019 11.2472H9.32934V16.3348H14.9868L15.0004 10.2025Z" />
            </svg>
        </symbol>

        <symbol id="logout" xmlns="http://www.w3.org/2000/svg" width="24" height="24"  viewBox="0 0 18 18" fill="currentColor">
            <svg width="16" height="16" viewBox="0 0 16 16" xmlns="http://www.w3.org/2000/svg">
            <g clip-path="url(#clip0)">
            <path d="M4.66667 9.66659C4.3703 9.66682 4.07759 9.60119 3.8097 9.47444C3.54181 9.34769 3.30544 9.16299 3.11767 8.93369C2.92991 8.7044 2.79545 8.43624 2.72403 8.14861C2.6526 7.86099 2.64599 7.56108 2.70467 7.27059C2.807 6.80944 3.06559 6.39784 3.43664 6.10552C3.80769 5.8132 4.26838 5.65814 4.74067 5.66659H9.33333C9.42174 5.66659 9.50652 5.63147 9.56904 5.56895C9.63155 5.50644 9.66667 5.42166 9.66667 5.33325V0.999919C9.66667 0.823108 9.59643 0.653538 9.47141 0.528514C9.34638 0.40349 9.17681 0.333252 9 0.333252H0.666667C0.489856 0.333252 0.320286 0.40349 0.195262 0.528514C0.0702379 0.653538 0 0.823108 0 0.999919L0 14.9999C0 15.1767 0.0702379 15.3463 0.195262 15.4713C0.320286 15.5963 0.489856 15.6666 0.666667 15.6666H9C9.17681 15.6666 9.34638 15.5963 9.47141 15.4713C9.59643 15.3463 9.66667 15.1767 9.66667 14.9999V9.99992C9.66667 9.91151 9.63155 9.82673 9.56904 9.76422C9.50652 9.7017 9.42174 9.66659 9.33333 9.66659H4.66667Z" />
            <path opacity="0.5" d="M15.75 7.14602L14.9774 6.52868L14.082 5.81202L12.4154 4.47868C12.3172 4.40053 12.199 4.35165 12.0744 4.33766C11.9497 4.32366 11.8237 4.34513 11.7106 4.39958C11.5976 4.45403 11.5023 4.53926 11.4355 4.64547C11.3688 4.75168 11.3334 4.87457 11.3334 5.00002V6.66668H4.66669C4.40147 6.66668 4.14712 6.77204 3.95958 6.95958C3.77204 7.14711 3.66669 7.40147 3.66669 7.66668C3.66669 7.9319 3.77204 8.18625 3.95958 8.37379C4.14712 8.56133 4.40147 8.66668 4.66669 8.66668H11.3334V10.3333C11.3333 10.459 11.3688 10.582 11.4356 10.6884C11.5025 10.7948 11.598 10.8801 11.7112 10.9345C11.8245 10.9889 11.9507 11.0102 12.0756 10.996C12.2004 10.9817 12.3186 10.9325 12.4167 10.854L14.0834 9.52068L14.9787 8.80468L15.7514 8.18668C15.8295 8.12423 15.8925 8.045 15.9358 7.95487C15.9792 7.86474 16.0017 7.76602 16.0017 7.66602C16.0017 7.56601 15.9792 7.46729 15.9358 7.37716C15.8925 7.28703 15.8295 7.2078 15.7514 7.14535L15.75 7.14602Z" />
            </g>
            <defs>
            <clipPath id="clip0">
            <rect width="16" height="16" fill="white"/>
            </clipPath>
            </defs>
            </svg>
        </symbol>

        <symbol id="settings" xmlns="http://www.w3.org/2000/svg" width="24" height="20"  viewBox="0 0 18 18" fill="currentColor">
          <svg width="18" height="18" viewBox="0 0 18 18" xmlns="http://www.w3.org/2000/svg">
            <path d="M16.6303 10.2011L16.5503 10.1209C15.9907 9.47893 15.9907 8.51605 16.6303 7.87412L17.4298 7.15195C17.7496 6.83099 17.9895 6.34955 17.9096 5.94834C17.8296 5.0657 17.11 4.42377 16.2305 4.42377H15.1911H15.0312C14.1517 4.42377 13.5121 3.62136 13.5121 2.81896L13.5921 1.69559C13.5921 1.21414 13.4322 0.732698 13.1124 0.411735C12.4727 -0.149949 11.5133 -0.149949 10.8737 0.491976L10.1541 1.29438C10.1541 1.37462 10.0741 1.37462 9.99417 1.37462C9.35454 1.93631 8.3951 1.93631 7.75548 1.29438L7.0359 0.491976C6.79604 0.171013 6.31632 0.010532 5.8366 0.010532C4.95711 0.0907727 4.31748 0.812939 4.31748 1.69559L4.39743 2.81896C4.39743 2.8992 4.39743 2.8992 4.39743 2.97944C4.39743 3.86209 3.5979 4.50401 2.71841 4.42377L1.67902 4.34353C1.1993 4.34353 0.799534 4.50401 0.47972 4.82497C-0.0799533 5.4669 -0.0799534 6.42979 0.559673 7.07171L1.35921 7.79388C1.35921 7.79388 1.43916 7.87412 1.43916 7.95436C1.99883 8.59629 1.99883 9.55917 1.35921 10.2011L0.559673 10.9233C0.159907 11.2442 0 11.7257 0 12.2071C0.0799534 13.0898 0.799533 13.7317 1.67902 13.6515H2.79837H2.95827C3.75781 13.6515 4.47739 14.4539 4.39743 15.2563L4.31748 16.3796C4.31748 16.8611 4.47739 17.2623 4.7972 17.5832C5.43683 18.1449 6.39627 18.1449 7.0359 17.503L7.75548 16.7006C7.75548 16.6204 7.83543 16.6204 7.83543 16.6204C8.47506 16.0587 9.4345 16.0587 10.0741 16.7006L10.7937 17.503C11.1135 17.824 11.5932 18.0647 11.993 17.9844C12.8725 17.9042 13.5121 17.182 13.5121 16.2994L13.5921 15.2563C13.5921 15.176 13.5921 15.176 13.5921 15.0958C13.5921 14.2131 14.3916 13.5712 15.1911 13.6515L16.3105 13.7317C16.7902 13.7317 17.2699 13.5712 17.5897 13.2502C18.1494 12.6083 18.1494 11.5652 17.5098 11.0035L16.6303 10.2011ZM8.95478 14.1329C6.15641 14.1329 3.91771 11.8862 3.91771 9.07773C3.91771 6.26931 6.15641 4.02257 8.95478 4.02257C11.7531 4.02257 13.9918 6.26931 13.9918 9.07773C14.0718 11.8059 11.7531 14.1329 8.95478 14.1329Z" />
            <path opacity="0.5" d="M8.95474 11.6455C10.4119 11.6455 11.5932 10.46 11.5932 8.99755C11.5932 7.53513 10.4119 6.34961 8.95474 6.34961C7.49756 6.34961 6.31628 7.53513 6.31628 8.99755C6.31628 10.46 7.49756 11.6455 8.95474 11.6455Z" />
          </svg>
        </symbol>
    </defs>    
</svg>
