<svg width="35" height="33" viewBox="0 0 35 33" fill="none" xmlns="http://www.w3.org/2000/svg">
<path d="M6.00012 0C4.90012 0 4.00012 0.9 4.00012 2V30C4.00012 31.1 4.90012 32 6.00012 32H26.0001C27.1001 32 28.0001 31.1 28.0001 30V8L20.0001 0H6.00012Z" fill="#E2E5E7"/>
<path d="M22 8H28L20 0V6C20 7.1 20.9 8 22 8Z" fill="#B0B7BD"/>
<path d="M28 14L22 8H28V14Z" fill="#CAD1D8"/>
<path d="M24 26C24 26.55 23.55 27 23 27H1C0.45 27 0 26.55 0 26V16C0 15.45 0.45 15 1 15H23C23.55 15 24 15.45 24 16V26Z" fill="#F15642"/>
<path d="M4.35901 18.947C4.35901 18.683 4.56701 18.395 4.90201 18.395H6.74901C7.78901 18.395 8.72501 19.091 8.72501 20.425C8.72501 21.689 7.78901 22.393 6.74901 22.393H5.41401V23.449C5.41401 23.801 5.19001 24 4.90201 24C4.63801 24 4.35901 23.801 4.35901 23.449V18.947ZM5.41401 19.402V21.394H6.74901C7.28501 21.394 7.70901 20.921 7.70901 20.425C7.70901 19.866 7.28501 19.402 6.74901 19.402H5.41401Z" fill="white"/>
<path d="M10.291 24C10.027 24 9.73901 23.856 9.73901 23.505V18.963C9.73901 18.676 10.027 18.467 10.291 18.467H12.122C15.776 18.467 15.696 24 12.194 24H10.291ZM10.795 19.443V23.025H12.122C14.281 23.025 14.377 19.443 12.122 19.443H10.795Z" fill="white"/>
<path d="M16.9922 19.5071V20.7781H19.0312C19.3192 20.7781 19.6072 21.0661 19.6072 21.3451C19.6072 21.6091 19.3192 21.8251 19.0312 21.8251H16.9922V23.5041C16.9922 23.7841 16.7932 23.9991 16.5132 23.9991C16.1612 23.9991 15.9462 23.7841 15.9462 23.5041V18.9621C15.9462 18.6751 16.1622 18.4661 16.5132 18.4661H19.3202C19.6722 18.4661 19.8802 18.6751 19.8802 18.9621C19.8802 19.2181 19.6722 19.5061 19.3202 19.5061H16.9922V19.5071Z" fill="white"/>
<path d="M23.0001 27H4.00012V28H23.0001C23.5501 28 24.0001 27.55 24.0001 27V26C24.0001 26.55 23.5501 27 23.0001 27Z" fill="#CAD1D8"/>
<circle cx="27" cy="25" r="8" fill="white"/>
<path d="M27 18.28C23.2944 18.28 20.28 21.2944 20.28 25C20.28 28.7057 23.2944 31.72 27 31.72C30.7057 31.72 33.72 28.7057 33.72 25C33.72 21.2944 30.7057 18.28 27 18.28ZM30.725 23.631L26.4331 27.9224C26.3025 28.0529 26.1215 28.1279 25.937 28.1279V28.4185L25.9308 28.1279C25.7435 28.1262 25.5619 28.0478 25.4319 27.9133L23.2667 25.6698C22.9976 25.3911 23.0056 24.9461 23.2843 24.6777C23.4159 24.5505 23.589 24.4807 23.7712 24.4807C23.9636 24.4807 24.143 24.5568 24.2764 24.6953L25.9456 26.4252L29.7323 22.6384C29.8645 22.5062 30.041 22.433 30.2283 22.433C30.4157 22.433 30.5922 22.5062 30.7244 22.6384C30.9985 22.912 30.9985 23.3575 30.725 23.6311L30.725 23.631Z" fill="#00C786"/>
</svg>
